<svg xmlns="http://www.w3.org/2000/svg" xmlns:xlink="http://www.w3.org/1999/xlink" fill="none" version="1.1" width="18" height="16" viewBox="0 0 18 16"><defs><clipPath id="master_svg0_4_733"><rect x="0" y="0" width="18" height="16" rx="0"/></clipPath></defs><g clip-path="url(#master_svg0_4_733)"><g transform="matrix(1,0,0,-1,0,30.6875)"><g><path d="M2.866196875,23.34375L0.123046875,18.59375L2.866196875,23.34375L0.123046875,18.59375L0.123046875,27.34375Q0.153868775,28.18755,0.708662875,28.75005Q1.263456875,29.31255,2.095646875,29.34375L5.732636875,29.34375Q6.534006875,29.34375,7.119616875,28.75005L7.920986875,27.93755Q8.506606875,27.34375,9.338796875,27.34375L12.944946875,27.34375Q13.777146875,27.31255,14.331946875,26.75005Q14.886746875,26.18755,14.917546875,25.34375L14.917546875,24.34375L4.561406875,24.34375Q3.451816875,24.3125,2.866196875,23.34375ZM3.698386875,22.84375Q4.006606875,23.3125,4.561406875,23.34375L16.890146875,23.34375Q17.444946875,23.3125,17.753146875,22.84375Q17.999746875,22.34375,17.753146875,21.84375L14.301146875,15.84375Q13.992946875,15.375,13.438146875,15.34375L1.109347875,15.34375Q0.554553875,15.375,0.246334875,15.84375Q-0.00024112499999999482,16.34375,0.246334875,16.84375L3.698386875,22.84375Z" fill="#374151" fill-opacity="1" style="mix-blend-mode:passthrough"/></g></g></g></svg>