<svg xmlns="http://www.w3.org/2000/svg" xmlns:xlink="http://www.w3.org/1999/xlink" fill="none" version="1.1" width="16" height="16" viewBox="0 0 16 16"><defs><clipPath id="master_svg0_4_800"><rect x="0" y="0" width="16" height="16" rx="0"/></clipPath></defs><g clip-path="url(#master_svg0_4_800)"><g transform="matrix(1,0,0,-1,0,32.696533203125)"><g><path d="M11.393664800262451,31.7589666015625L9.868334800262451,30.2277666015625L11.393664800262451,31.7589666015625L9.868334800262451,30.2277666015625L13.915064800262451,26.1652266015625L15.440264800262451,27.6964666015625Q16.00066480026245,28.2902666015625,16.00066480026245,29.1027666015625Q16.00066480026245,29.8839666015625,15.440264800262451,30.5089666015625L14.195164800262452,31.7589666015625Q13.603764800262452,32.3214666015625,12.794364800262452,32.3214666015625Q12.016164800262452,32.3214666015625,11.393664800262451,31.7589666015625ZM9.183504800262451,29.5402666015625L1.9305848002624513,22.2277266015625L9.183504800262451,29.5402666015625L1.9305848002624513,22.2277266015625Q1.4325348002624512,21.7589766015625,1.2146348002624512,21.0714766015625L0.12514010026245118,17.3214806015625Q0.000626500262451174,16.8839806015625,0.31191080026245116,16.5714806015625Q0.6231948002624512,16.2589810015625,1.0589918002624512,16.3839810015625L4.794404800262451,17.4777266015625Q5.448094800262451,17.6964766015625,5.946154800262451,18.1652266015625L13.23016480026245,25.4777266015625L9.183504800262451,29.5402666015625Z" fill="#FFFFFF" fill-opacity="1" style="mix-blend-mode:passthrough"/></g></g></g></svg>