<svg xmlns="http://www.w3.org/2000/svg" xmlns:xlink="http://www.w3.org/1999/xlink" fill="none" version="1.1" width="27" height="36" viewBox="0 0 27 36"><defs><clipPath id="master_svg0_4_758"><rect x="0" y="0" width="27" height="36" rx="0"/></clipPath></defs><g clip-path="url(#master_svg0_4_758)"><g transform="matrix(1,0,0,-1,0,73.546875)"><g><path d="M10.125,68.8359375Q10.1953,69.3281375,10.6875,69.3984375L16.3125,69.3984375Q16.8047,69.3281375,16.875,68.8359375L16.875,63.7734375L10.125,63.7734375L10.125,68.8359375ZM22.5,63.7734375L20.25,63.7734375L22.5,63.7734375L20.25,63.7734375L20.25,68.8359375Q20.1797,70.5234375,19.125,71.6484375Q18,72.7031375,16.3125,72.7734375L10.6875,72.7734375Q9,72.7031375,7.875,71.6484375Q6.82031,70.5234375,6.75,68.8359375L6.75,63.7734375L4.5,63.7734375Q2.60156,63.7031375,1.33594,62.437537500000005Q0.0703125,61.171837499999995,0,59.2734375L0,43.5234375Q0.0703125,41.6249975,1.33594,40.3593775Q2.60156,39.0937475,4.5,39.0234375Q4.5,38.0390575,5.13281,37.4062495Q5.76562,36.7734375,6.75,36.7734375Q7.73438,36.7734375,8.36719,37.4062495Q9,38.0390575,9,39.0234375L18,39.0234375Q18,38.0390575,18.6328,37.4062495Q19.2656,36.7734375,20.25,36.7734375Q21.2344,36.7734375,21.8672,37.4062495Q22.5,38.0390575,22.5,39.0234375Q24.3984,39.0937475,25.6641,40.3593775Q26.9297,41.6249975,27,43.5234375L27,59.2734375Q26.9297,61.171837499999995,25.6641,62.437537500000005Q24.3984,63.7031375,22.5,63.7734375ZM7.875,57.0234375L19.125,57.0234375L7.875,57.0234375L19.125,57.0234375Q20.1797,56.9531375,20.25,55.8984375Q20.1797,54.8437375,19.125,54.7734375L7.875,54.7734375Q6.82031,54.8437375,6.75,55.8984375Q6.82031,56.9531375,7.875,57.0234375ZM7.875,48.0234375L19.125,48.0234375L7.875,48.0234375L19.125,48.0234375Q20.1797,47.9531375,20.25,46.8984375Q20.1797,45.8437475,19.125,45.7734375L7.875,45.7734375Q6.82031,45.8437475,6.75,46.8984375Q6.82031,47.9531375,7.875,48.0234375Z" fill="#9CA3AF" fill-opacity="1" style="mix-blend-mode:passthrough"/></g></g></g></svg>